# xmcd CD database file
#
# Track frame offsets:
#	150
#	6825
#	20970
#	35828
#	50468
#	67028
#	74543
#	82868
#	92243
#	102368
#	111743
#	120143
#	126698
#	134273
#	142748
#	147383
#	161108
#
# Disc length: 2414 seconds
#
# Revision: 0
# Processed by: cddbd v1.5.2PL0 Copyright (c) Steve Scherf et al.
# Submitted via: CDex 1.51
#
DISCID=03096c11
DTITLE=Andreas Güstel - Solo Piano I - Kompositionen für Klavier
DYEAR=2014
DGENRE=New Age
TTITLE0=Im wunderschönen Monat Mai
TTITLE1=Eine Brise Klangfarben
TTITLE2=Tonale Ueberwindung
TTITLE3=Chopins Denkmal
TTITLE4=Rilke auf dem Sofa
TTITLE5=Cafe der Nacht
TTITLE6=Wellenreiten
TTITLE7=Schleichende Gedanken
TTITLE8=Hinter dem Nichts
TTITLE9=Oh lieb solang du lieben kannst
TTITLE10=Tanz der Tasten
TTITLE11=Ich habe Dich so lieb
TTITLE12=Sehnsucht
TTITLE13=Ein kleines Konzert
TTITLE14=Es ist als hät der Himmel
TTITLE15=Ist das wirklich mein Leben
TTITLE16=Prinzip Hoffnung
EXTD=YEAR: 2014
EXTT0=
EXTT1=
EXTT2=
EXTT3=
EXTT4=
EXTT5=
EXTT6=
EXTT7=
EXTT8=
EXTT9=
EXTT10=
EXTT11=
EXTT12=
EXTT13=
EXTT14=
EXTT15=
EXTT16=
PLAYORDER=
